<?xml version="1.0" standalone="no"?>
<!DOCTYPE svg PUBLIC "-//W3C//DTD SVG 20010904//EN"
 "http://www.w3.org/TR/2001/REC-SVG-20010904/DTD/svg10.dtd">
<svg version="1.0" xmlns="http://www.w3.org/2000/svg"
 width="300.000000pt" height="300.000000pt" viewBox="0 0 300.000000 300.000000"
 preserveAspectRatio="xMidYMid meet">
<metadata>
Created by potrace 1.10, written by Peter Selinger 2001-2011
</metadata>
<g transform="translate(0.000000,300.000000) scale(0.100000,-0.100000)"
fill="#000000" stroke="none">
<path d="M1750 1860 l0 -40 375 0 375 0 0 40 0 40 -375 0 -375 0 0 -40z"/>
<path d="M520 1630 l0 -170 40 0 41 0 -7 50 -7 50 52 0 c91 0 141 42 141 118
0 87 -51 122 -180 122 l-80 0 0 -170z m173 82 c41 -36 3 -92 -63 -92 l-40 0 0
53 c0 30 2 56 5 58 9 10 81 -4 98 -19z"/>
<path d="M940 1630 l0 -170 35 0 35 0 0 55 c0 54 1 55 28 55 23 0 32 -9 57
-55 29 -53 31 -55 73 -55 23 0 42 2 42 5 0 3 -15 30 -34 60 l-35 53 24 16 c26
17 49 82 39 112 -24 76 -59 94 -178 94 l-86 0 0 -170z m175 90 c22 -18 18 -57
-7 -74 -12 -9 -39 -16 -60 -16 l-38 0 0 56 0 57 45 -5 c25 -3 52 -11 60 -18z"/>
<path d="M1370 1629 l0 -172 94 5 c153 8 207 49 214 161 3 52 0 67 -20 97 -38
57 -96 80 -200 80 l-88 0 0 -171z m190 86 c17 -9 33 -28 40 -49 23 -71 -17
-126 -100 -134 l-50 -5 0 102 0 101 40 0 c23 0 54 -7 70 -15z"/>
<path d="M1650 1438 c-42 -28 -80 -98 -80 -148 0 -49 38 -120 79 -147 40 -27
122 -31 175 -9 32 13 76 62 89 99 5 14 0 17 -29 17 -26 0 -43 -8 -66 -30 -41
-42 -98 -42 -139 -1 -63 64 -20 171 68 171 38 0 83 -27 83 -50 0 -6 20 -10 45
-10 l45 0 -20 39 c-30 60 -72 85 -150 89 -55 3 -70 0 -100 -20z"/>
<path d="M2050 1425 l0 -35 55 0 55 0 0 -135 0 -135 38 0 37 0 -3 136 -4 136
56 -4 56 -3 0 38 0 37 -145 0 -145 0 0 -35z"/>
<path d="M2464 1443 c3 -10 33 -85 65 -168 l59 -150 37 0 38 0 63 165 c35 90
64 166 64 168 0 2 -19 2 -41 0 l-42 -3 -39 -110 c-21 -60 -40 -111 -42 -112
-2 -2 -21 47 -43 109 l-40 113 -42 3 c-37 3 -42 1 -37 -15z m186 -235 c0 -34
-33 -51 -44 -22 -10 25 -7 29 19 29 14 0 25 -3 25 -7z"/>
<path d="M720 1273 l0 -43 370 0 370 0 0 43 0 42 -370 0 -370 0 0 -42z"/>
</g>
</svg>
